<?xml version="1.0" encoding="UTF-8" standalone="no"?>
<svg width="180" height="180" viewBox="0 0 180 180" fill="none" xmlns="http://www.w3.org/2000/svg">
  <!-- Background with rounded corners -->
  <rect width="180" height="180" rx="45" fill="url(#snapurl-gradient)"/>
  
  <!-- Link icon -->
  <g transform="translate(33.75, 33.75) scale(0.625)">
    <!-- Chain links -->
    <path d="M213.333 277.333a106.667 106.667 0 0 0 160.427 11.52l64-64a106.667 106.667 0 0 0-150.827-150.827l-36.693 36.48" stroke="white" stroke-width="32" stroke-linecap="round" stroke-linejoin="round" fill="none"/>
    <path d="M298.667 234.667a106.667 106.667 0 0 0-160.427-11.52l-64 64a106.667 106.667 0 0 0 150.827 150.827l36.693-36.48" stroke="white" stroke-width="32" stroke-linecap="round" stroke-linejoin="round" fill="none"/>
    
    <!-- Connecting lines -->
    <path d="M256 170.667l85.333 85.333" stroke="white" stroke-width="32" stroke-linecap="round" stroke-linejoin="round" fill="none"/>
    <path d="M170.667 256l85.333 85.333" stroke="white" stroke-width="32" stroke-linecap="round" stroke-linejoin="round" fill="none"/>
  </g>
  
  <!-- Gradient definition -->
  <defs>
    <linearGradient id="snapurl-gradient" x1="0" y1="0" x2="180" y2="180" gradientUnits="userSpaceOnUse">
      <stop offset="0" stop-color="#4F46E5"/>
      <stop offset="0.5" stop-color="#2563EB"/>
      <stop offset="1" stop-color="#06B6D4"/>
    </linearGradient>
  </defs>
</svg>